<?xml version="1.0" encoding="UTF-8" standalone="no"?>
<svg
   xmlns:dc="http://purl.org/dc/elements/1.1/"
   xmlns:cc="http://creativecommons.org/ns#"
   xmlns:rdf="http://www.w3.org/1999/02/22-rdf-syntax-ns#"
   xmlns:svg="http://www.w3.org/2000/svg"
   xmlns="http://www.w3.org/2000/svg"
   xmlns:sodipodi="http://sodipodi.sourceforge.net/DTD/sodipodi-0.dtd"
   xmlns:inkscape="http://www.inkscape.org/namespaces/inkscape"
   version="1.1"
   x="0px"
   y="0px"
   viewBox="0 0 100 125"
   enable-background="new 0 0 100 100"
   xml:space="preserve"
   id="svg2"
   inkscape:version="0.91 r13725"
   sodipodi:docname="tipi.svg"><metadata
     id="metadata14"><rdf:RDF><cc:Work
         rdf:about=""><dc:format>image/svg+xml</dc:format><dc:type
           rdf:resource="http://purl.org/dc/dcmitype/StillImage" /></cc:Work></rdf:RDF></metadata><defs
     id="defs12" /><sodipodi:namedview
     pagecolor="#ffffff"
     bordercolor="#666666"
     borderopacity="1"
     objecttolerance="10"
     gridtolerance="10"
     guidetolerance="10"
     inkscape:pageopacity="0"
     inkscape:pageshadow="2"
     inkscape:window-width="1855"
     inkscape:window-height="1056"
     id="namedview10"
     showgrid="false"
     inkscape:zoom="7.552"
     inkscape:cx="50.926907"
     inkscape:cy="57.20339"
     inkscape:window-x="65"
     inkscape:window-y="24"
     inkscape:window-maximized="1"
     inkscape:current-layer="svg2" /><path
     d="m 75.61509,90.381913 -23.18,-46.183 4.809,-9.541 c 0.53,-1.053 0.106,-2.337 -0.946,-2.868 -1.052,-0.531 -2.338,-0.107 -2.868,0.947 l -3.381,6.707 -3.384,-6.743 c -0.529,-1.054 -1.812,-1.479 -2.867,-0.951 -1.054,0.529 -1.479,1.813 -0.95,2.868 l 4.808,9.579 -23.27,46.182 c -0.333,0.662 -0.299,1.451 0.089,2.082 0.388,0.631 1.077,1.016 1.818,1.016 l 47.414,0 c 0.741,0 1.429,-0.385 1.818,-1.014 0.387,-0.634 0.422,-1.419 0.09,-2.081 z m -25.574,-41.431 9.39,18.708 -3.689,2.174 -4.78,-3.018 c -0.708,-0.447 -1.612,-0.441 -2.312,0.02 l -4.534,2.975 -3.513,-2.127 9.438,-18.732 z m -2.863,40.253 2.643,-5.848 2.643,5.848 -5.286,0 z m 9.974,0 -5.386,-11.912 c -0.346,-0.766 -1.105,-1.256 -1.945,-1.256 -0.839,0 -1.601,0.49 -1.946,1.256 l -5.385,11.912 -12.73,0 8.915,-17.695 4.38,2.652 c 0.34,0.205 0.724,0.309 1.106,0.309 0.409,0 0.817,-0.117 1.172,-0.35 l 4.511,-2.959 4.72,2.98 c 0.676,0.426 1.534,0.438 2.224,0.033 l 4.564,-2.689 8.894,17.719 -13.094,0 z"
     id="path4"
     inkscape:connector-curvature="0"
     style="fill:#000000" /></svg>